<?xml version="1.0" encoding="UTF-8"?>
<svg xmlns="http://www.w3.org/2000/svg" viewBox="0 0 640 480" width="640" height="480">
  <defs>
    <linearGradient id="bgGrad" x1="0" y1="0" x2="0" y2="1">
      <stop offset="0" stop-color="#f7f3ec"/>
      <stop offset="1" stop-color="#efe8dc"/>
    </linearGradient>
    <pattern id="linen" width="8" height="8" patternUnits="userSpaceOnUse">
      <rect width="8" height="8" fill="none"/>
      <path d="M0 0 H8 M0 4 H8" stroke="#2b2723" stroke-opacity="0.05" stroke-width="1"/>
      <path d="M0 0 V8 M4 0 V8" stroke="#2b2723" stroke-opacity="0.035" stroke-width="1"/>
    </pattern>
    <pattern id="terry" width="10" height="10" patternUnits="userSpaceOnUse">
      <circle cx="3" cy="3" r="2.1" fill="#2b2723" fill-opacity="0.05"/>
      <circle cx="8" cy="8" r="2.1" fill="#2b2723" fill-opacity="0.05"/>
    </pattern>
    <pattern id="rib" width="9" height="6" patternUnits="userSpaceOnUse">
      <path d="M2 0 V6 M6 0 V6" stroke="#2b2723" stroke-opacity="0.09" stroke-width="2" stroke-linecap="round"/>
    </pattern>
    <filter id="soft" x="-20%" y="-20%" width="140%" height="150%">
      <feDropShadow dx="0" dy="10" stdDeviation="12" flood-color="#2b2723" flood-opacity="0.13"/>
    </filter>
    <filter id="soft-sm" x="-25%" y="-25%" width="150%" height="160%">
      <feDropShadow dx="0" dy="5" stdDeviation="6" flood-color="#2b2723" flood-opacity="0.12"/>
    </filter>
  </defs>
  <rect width="640" height="480" fill="url(#bgGrad)"/>
  <rect width="640" height="480" fill="url(#linen)"/>
  <rect x="80" y="90" width="480" height="300" rx="12" fill="#e6dbc7" filter="url(#soft)"/>
  <rect x="80" y="90" width="480" height="300" rx="12" fill="url(#linen)"/>
  <path d="M320 90 V390" stroke="#2b2723" stroke-opacity="0.1" stroke-dasharray="6 6"/>
  <g filter="url(#soft)">
  <rect x="110" y="130" width="180" height="110" rx="10" fill="#dfe7e2"/>
  <rect x="110" y="130" width="180" height="110" rx="10" fill="url(#terry)"/>
  <rect x="110" y="156.4" width="180" height="17.6" fill="#3f6b5b" fill-opacity="0.5"/>
  <rect x="110" y="198.2" width="180" height="9.9" fill="#3f6b5b" fill-opacity="0.32"/>
  <path d="M110 185.0 H290" stroke="#2b2723" stroke-opacity="0.07" stroke-width="2"/>
  <rect x="110" y="130" width="180" height="110" rx="10" fill="none" stroke="#2b2723" stroke-opacity="0.16"/>
  </g>
  <g transform="translate(360 120) scale(0.85) rotate(-8 70 90)" filter="url(#soft)">
  <path d="M24 6 h56 a6 6 0 0 1 6 6 v104 c0 13 5 20 17 27 l30 18 c17 10 12 38 -9 38 H49 c-17 0 -28 -12 -28 -29 V12 a6 6 0 0 1 6 -6 z" fill="#f0e6d6" stroke="#2b2723" stroke-opacity="0.22" stroke-width="2.5" stroke-linejoin="round"/>
  <path d="M24 6 h56 a6 6 0 0 1 6 6 v104 c0 13 5 20 17 27 l30 18 c17 10 12 38 -9 38 H49 c-17 0 -28 -12 -28 -29 V12 a6 6 0 0 1 6 -6 z" fill="url(#rib)" fill-opacity="0.45"/>
  <rect x="24" y="6" width="62" height="26" rx="4" fill="#b07a45" fill-opacity="0.85"/>
  <rect x="24" y="6" width="62" height="26" rx="4" fill="url(#rib)"/>
  <path d="M24 118 q22 10 34 6" stroke="#2b2723" stroke-opacity="0.12" stroke-width="2" fill="none"/>
  </g>
  <text x="110" y="300" font-family="Noto Serif TC, Songti TC, serif" font-size="15" fill="#8c8375" text-anchor="start">素面紙盒包裝，可直接送人</text>
</svg>
