<?xml version="1.0" encoding="UTF-8"?>
<svg xmlns="http://www.w3.org/2000/svg" viewBox="0 0 640 480" width="640" height="480">
  <defs>
    <linearGradient id="bgGrad" x1="0" y1="0" x2="0" y2="1">
      <stop offset="0" stop-color="#f7f3ec"/>
      <stop offset="1" stop-color="#efe8dc"/>
    </linearGradient>
    <pattern id="linen" width="8" height="8" patternUnits="userSpaceOnUse">
      <rect width="8" height="8" fill="none"/>
      <path d="M0 0 H8 M0 4 H8" stroke="#2b2723" stroke-opacity="0.05" stroke-width="1"/>
      <path d="M0 0 V8 M4 0 V8" stroke="#2b2723" stroke-opacity="0.035" stroke-width="1"/>
    </pattern>
    <pattern id="terry" width="10" height="10" patternUnits="userSpaceOnUse">
      <circle cx="3" cy="3" r="2.1" fill="#2b2723" fill-opacity="0.05"/>
      <circle cx="8" cy="8" r="2.1" fill="#2b2723" fill-opacity="0.05"/>
    </pattern>
    <pattern id="rib" width="9" height="6" patternUnits="userSpaceOnUse">
      <path d="M2 0 V6 M6 0 V6" stroke="#2b2723" stroke-opacity="0.09" stroke-width="2" stroke-linecap="round"/>
    </pattern>
    <filter id="soft" x="-20%" y="-20%" width="140%" height="150%">
      <feDropShadow dx="0" dy="10" stdDeviation="12" flood-color="#2b2723" flood-opacity="0.13"/>
    </filter>
    <filter id="soft-sm" x="-25%" y="-25%" width="150%" height="160%">
      <feDropShadow dx="0" dy="5" stdDeviation="6" flood-color="#2b2723" flood-opacity="0.12"/>
    </filter>
  </defs>
  <rect width="640" height="480" fill="url(#bgGrad)"/>
  <rect width="640" height="480" fill="url(#linen)"/>
  <rect x="0" y="372" width="640" height="108" fill="#e6dbc7" fill-opacity="0.55"/>
  <rect x="0" y="372" width="640" height="108" fill="url(#linen)"/>
  <path d="M0 372 H640" stroke="#2b2723" stroke-opacity="0.08"/>
  <g filter="url(#soft)">
  <rect x="110" y="120" width="420" height="250" rx="10" fill="#f0e6d6"/>
  <rect x="110" y="120" width="420" height="250" rx="10" fill="url(#terry)"/>
  <rect x="110" y="180.0" width="420" height="40.0" fill="#b07a45" fill-opacity="0.5"/>
  <rect x="110" y="275.0" width="420" height="22.5" fill="#b07a45" fill-opacity="0.32"/>
  <path d="M110 245.0 H530" stroke="#2b2723" stroke-opacity="0.07" stroke-width="2"/>
  <rect x="110" y="120" width="420" height="250" rx="10" fill="none" stroke="#2b2723" stroke-opacity="0.16"/>
  </g>
  <rect x="412.4" y="300.0" width="67.2" height="30.0" rx="3" fill="#f7f3ec" stroke="#2b2723" stroke-opacity="0.2"/>
  <path d="M425.0 315.0 h42.0" stroke="#3f6b5b" stroke-opacity="0.65" stroke-width="2"/>
  <g filter="url(#soft)">
  <rect x="150" y="96" width="340" height="44" rx="10" fill="#f7f3ec"/>
  <rect x="150" y="96" width="340" height="44" rx="10" fill="url(#terry)"/>
  <rect x="150" y="106.6" width="340" height="7.0" fill="#b07a45" fill-opacity="0.5"/>
  <rect x="150" y="123.3" width="340" height="4.0" fill="#b07a45" fill-opacity="0.32"/>
  <path d="M150 118.0 H490" stroke="#2b2723" stroke-opacity="0.07" stroke-width="2"/>
  <rect x="150" y="96" width="340" height="44" rx="10" fill="none" stroke="#2b2723" stroke-opacity="0.16"/>
  </g>
  <text x="44" y="448" font-family="Noto Serif TC, Songti TC, serif" font-size="15" fill="#8c8375" text-anchor="start">純棉大浴巾 · 70 × 140 cm</text>
</svg>
